<svg xmlns="http://www.w3.org/2000/svg" viewBox="0 0 1251.67 349.24"><defs><style>.cls-1{fill:#fff;}</style></defs><title>nitrox3-logo</title><g id="Layer_2" data-name="Layer 2"><g id="Layer_1-2" data-name="Layer 1"><path class="cls-1" d="M141.66,97.35h53V315.57h-53L53,178.25V315.57H0V97.35H53l88.65,137.32Z"/><path class="cls-1" d="M235.58,315.57V98h53v217.6Z"/><path class="cls-1" d="M314.63,138.26V98H486.36v40.29H426.84V315.57h-53V138.26Z"/><path class="cls-1" d="M565.4,231v84.62h-53V98h85.86q37.82,0,58.9,19.53t21.08,47.11q0,18.91-11.47,36.89t-37.51,25.42l53.32,88.65h-62l-49-84.62Zm0-92.69v52.39h32.85q12.09,0,19.07-7.13t7-18.75q0-11.62-7.13-19.07t-18.91-7.44Z"/><path class="cls-1" d="M733.56,286.12q-32.4-31.6-32.39-80t32.39-79.82q32.38-31.45,79.35-31.46T892,126.33Q924,157.8,924,206.15t-32.24,80q-32.24,31.62-79,31.62T733.56,286.12Zm120.89-34.4q15.64-17.06,15.65-45.57t-15.65-45.57q-15.66-17-41.85-17.05t-41.84,17.05q-15.66,17.05-15.66,45.57t15.66,45.57q15.65,17,41.84,17T854.45,251.72Z"/><path class="cls-1" d="M1181.12,40.55q-19.17,0-21.11,20.56H1113.9q0-29.16,18.75-45.14T1182.5,0q31.11,0,48.34,15.28t17.22,38.88q0,18.61-9,30.28T1220.56,100v1.11q31.11,11.94,31.11,48.05,0,27.22-18.2,42.92t-50.27,15.69q-32.09,0-52.36-16.39t-20.28-48.89h46.11q.27,12.24,6.95,19.31t18.47,7.08q11.81,0,17.77-6.39t6-18.19q0-11.81-8.34-17.64t-27.22-5.83h-8.89V82.22h8.89q31.67,0,31.67-22.22,0-8.89-5.7-14.17T1181.12,40.55Z"/><path class="cls-1" d="M1117.94,98l-68.82,109.11,68.51,108.49h-60.14l-40-63.23-57.71,96.9H899.66L989,206.77,920.48,98h60.14l40,63.54L1057.8,98Z"/></g></g></svg>