<svg width="188" height="188" viewBox="0 0 188 188" fill="none" xmlns="http://www.w3.org/2000/svg">
<path d="M94 131.6L131.6 94L118.44 80.84L103.4 95.88V56.4H84.6V95.88L69.56 80.84L56.4 94L94 131.6ZM94 188C80.9967 188 68.7767 185.531 57.34 180.593C45.9033 175.655 35.955 168.959 27.495 160.505C19.035 152.045 12.3391 142.097 7.4072 130.66C2.47533 119.223 0.00626667 107.003 0 94C0 80.9967 2.46907 68.7767 7.4072 57.34C12.3453 45.9033 19.0413 35.955 27.495 27.495C35.955 19.035 45.9033 12.3391 57.34 7.4072C68.7767 2.47533 80.9967 0.00626667 94 0C107.003 0 119.223 2.46907 130.66 7.4072C142.097 12.3453 152.045 19.0413 160.505 27.495C168.965 35.955 175.664 45.9033 180.602 57.34C185.54 68.7767 188.006 80.9967 188 94C188 107.003 185.531 119.223 180.593 130.66C175.655 142.097 168.959 152.045 160.505 160.505C152.045 168.965 142.097 175.664 130.66 180.602C119.223 185.54 107.003 188.006 94 188Z" fill="white"/>
</svg>
