<svg width="311" height="51" viewBox="0 0 311 51" fill="none" xmlns="http://www.w3.org/2000/svg">
<path d="M30.7468 2.69597H42.2368V50H30.7468L11.5295 20.2334V50H0.0394919V2.69597H11.5295L30.7468 32.4626V2.69597ZM55.0251 50V2.83036H66.5151V50H55.0251ZM76.076 11.5655V2.83036H113.301V11.5655H100.4V50H88.9099V11.5655H76.076ZM134.359 31.6563V50H122.869V2.83036H141.482C146.947 2.83036 151.202 4.24141 154.248 7.06353C157.295 9.88564 158.818 13.2901 158.818 17.2769C158.818 20.0094 157.989 22.6748 156.331 25.2729C154.674 27.871 151.964 29.7076 148.201 30.7827L159.758 50H146.32L135.703 31.6563H134.359ZM134.359 11.5655V22.9211H141.482C143.229 22.9211 144.595 22.406 145.581 21.3757C146.611 20.3454 147.126 19.0015 147.126 17.3441C147.126 15.6419 146.611 14.2532 145.581 13.1781C144.55 12.103 143.184 11.5655 141.482 11.5655H134.359ZM200.878 36.1582C203.163 33.6944 204.305 30.402 204.305 26.2808C204.305 22.1596 203.163 18.8671 200.878 16.4034C198.639 13.9396 195.615 12.7078 191.807 12.7078C188.045 12.7078 185.021 13.9396 182.736 16.4034C180.497 18.8671 179.377 22.1596 179.377 26.2808C179.377 30.402 180.497 33.6944 182.736 36.1582C185.021 38.6219 188.045 39.8538 191.807 39.8538C195.615 39.8538 198.639 38.6219 200.878 36.1582ZM174.673 43.6166C170.014 39.0475 167.685 33.2689 167.685 26.2808C167.685 19.2927 170.014 13.5365 174.673 9.01213C179.377 4.44299 185.11 2.15843 191.875 2.15843C198.683 2.15843 204.395 4.44299 209.009 9.01213C213.668 13.5365 215.997 19.2927 215.997 26.2808C215.997 33.2689 213.668 39.0475 209.009 43.6166C204.35 48.1858 198.639 50.4704 191.875 50.4704C185.11 50.4704 179.377 48.1858 174.673 43.6166ZM267.204 2.83036L252.287 26.4824L267.137 50H254.101L245.433 36.2926L237.437 50H224.402L239.252 26.4152L224.402 2.83036H237.437L246.105 16.605L254.168 2.83036H267.204ZM293.095 9.81845C290.004 9.81845 288.302 11.4759 287.989 14.7907H276.835C276.835 10.0872 278.335 6.45879 281.337 3.90545C284.383 1.30731 288.414 0.00824161 293.431 0.00824161C298.448 0.00824161 302.346 1.24012 305.123 3.70387C307.9 6.16762 309.289 9.3033 309.289 13.1109C309.289 16.1122 308.55 18.5536 307.072 20.435C305.638 22.3164 304.16 23.5707 302.637 24.1978V24.4666C307.654 26.3928 310.162 30.2676 310.162 36.091C310.162 40.481 308.684 43.9526 305.728 46.506C302.816 49.0145 298.762 50.2688 293.566 50.2688C288.414 50.2688 284.203 48.9473 280.933 46.3044C277.663 43.6614 276.028 39.7194 276.028 34.4784H287.182C287.227 36.4494 287.787 38.0172 288.862 39.1819C289.937 40.3018 291.416 40.8617 293.297 40.8617C295.223 40.8617 296.657 40.3466 297.597 39.3163C298.583 38.286 299.076 36.8301 299.076 34.9487C299.076 33.0225 298.404 31.5891 297.06 30.6484C295.716 29.7076 293.521 29.2373 290.475 29.2373H288.325V19.8974H290.475C295.582 19.8974 298.135 18.1056 298.135 14.522C298.135 13.0885 297.665 11.9462 296.724 11.0951C295.828 10.244 294.618 9.81845 293.095 9.81845Z" fill="white"/>
</svg>
